<?xml version="1.0" encoding="UTF-8" standalone="no"?>
<!-- Created with Inkscape (http://www.inkscape.org/) -->

<svg
   width="210mm"
   height="297mm"
   viewBox="0 0 210 297"
   version="1.1"
   id="svg5"
   inkscape:version="1.2.1 (9c6d41e410, 2022-07-14)"
   sodipodi:docname="tree.svg"
   xmlns:inkscape="http://www.inkscape.org/namespaces/inkscape"
   xmlns:sodipodi="http://sodipodi.sourceforge.net/DTD/sodipodi-0.dtd"
   xmlns="http://www.w3.org/2000/svg"
   xmlns:svg="http://www.w3.org/2000/svg">
  <sodipodi:namedview
     id="namedview7"
     pagecolor="#ffffff"
     bordercolor="#000000"
     borderopacity="0.25"
     inkscape:showpageshadow="2"
     inkscape:pageopacity="0.0"
     inkscape:pagecheckerboard="0"
     inkscape:deskcolor="#d1d1d1"
     inkscape:document-units="mm"
     showgrid="false"
     inkscape:zoom="0.74564394"
     inkscape:cx="398.984"
     inkscape:cy="561.9304"
     inkscape:window-width="1920"
     inkscape:window-height="1017"
     inkscape:window-x="-8"
     inkscape:window-y="-8"
     inkscape:window-maximized="1"
     inkscape:current-layer="layer1" />
  <defs
     id="defs2">
    <inkscape:path-effect
       effect="powerstroke"
       id="path-effect1380"
       is_visible="true"
       lpeversion="1"
       offset_points="0,2.3762074"
       not_jump="false"
       sort_points="true"
       interpolator_type="CubicBezierJohan"
       interpolator_beta="0.2"
       start_linecap_type="zerowidth"
       linejoin_type="extrp_arc"
       miter_limit="4"
       scale_width="1"
       end_linecap_type="zerowidth" />
    <inkscape:path-effect
       effect="spiro"
       id="path-effect1378"
       is_visible="true"
       lpeversion="1" />
    <inkscape:path-effect
       effect="powerstroke"
       id="path-effect1374"
       is_visible="true"
       lpeversion="1"
       offset_points="0,2.2702392"
       not_jump="false"
       sort_points="true"
       interpolator_type="CubicBezierJohan"
       interpolator_beta="0.2"
       start_linecap_type="zerowidth"
       linejoin_type="extrp_arc"
       miter_limit="4"
       scale_width="1"
       end_linecap_type="zerowidth" />
    <inkscape:path-effect
       effect="spiro"
       id="path-effect1372"
       is_visible="true"
       lpeversion="1" />
    <inkscape:path-effect
       effect="powerstroke"
       id="path-effect1188"
       is_visible="true"
       lpeversion="1"
       offset_points="0,1.9883294"
       not_jump="false"
       sort_points="true"
       interpolator_type="CubicBezierJohan"
       interpolator_beta="0.2"
       start_linecap_type="zerowidth"
       linejoin_type="extrp_arc"
       miter_limit="4"
       scale_width="1"
       end_linecap_type="zerowidth" />
    <inkscape:path-effect
       effect="spiro"
       id="path-effect1186"
       is_visible="true"
       lpeversion="1" />
    <inkscape:path-effect
       effect="powerstroke"
       id="path-effect1152"
       is_visible="true"
       lpeversion="1"
       offset_points="0,2.49"
       not_jump="false"
       sort_points="true"
       interpolator_type="CubicBezierJohan"
       interpolator_beta="0.2"
       start_linecap_type="zerowidth"
       linejoin_type="extrp_arc"
       miter_limit="4"
       scale_width="1"
       end_linecap_type="zerowidth" />
    <inkscape:path-effect
       effect="spiro"
       id="path-effect1150"
       is_visible="true"
       lpeversion="1" />
    <inkscape:path-effect
       effect="spiro"
       id="path-effect1140"
       is_visible="true"
       lpeversion="1" />
  </defs>
  <g
     inkscape:label="Слой 1"
     inkscape:groupmode="layer"
     id="layer1">
    <path
       style="fill:none;fill-opacity:1;stroke-width:0.264583"
       d="m 24.483871,188.41935 c -5.47555,-4.59804 -8.858074,-11.59755 -9.058465,-18.74482 -0.200391,-7.14727 2.784633,-14.32531 7.993949,-19.22292 5.805847,-5.45845 14.014298,-7.91739 21.981698,-7.76544 7.967401,0.15195 15.728487,2.72219 22.875686,6.24641 14.294397,7.04843 26.657834,17.96389 41.723261,23.16419 16.54308,5.71036 35.23148,3.83903 51.09677,-3.54839 6.6569,-3.09968 12.95963,-7.20177 17.74194,-12.77419 6.67325,-7.77577 10.03571,-18.28034 9.21998,-28.49452 -0.81574,-10.21418 -5.77494,-20.01904 -13.4516,-26.80607 -7.67665,-6.787029 -17.97375,-10.50229 -28.21811,-10.283364 -10.24436,0.218926 -20.33995,4.347397 -27.87285,11.293634 -2.77696,2.56069 -5.27063,5.58669 -6.40985,9.18819 -0.56961,1.80075 -0.78479,3.72603 -0.50997,5.59462 0.27482,1.86859 1.05187,3.67677 2.30691,5.08816 1.64217,1.84674 4.09325,2.94716 6.56452,2.94716 2.47127,0 4.92235,-1.10042 6.56452,-2.94716"
       id="path1138"
       inkscape:path-effect="#path-effect1140"
       inkscape:original-d="m 24.483871,188.41935 c 1.706414,-11.11607 -8.140275,-27.3541 -1.064516,-37.96774 17.897335,-26.846 68.130486,17.12676 86.580645,21.64516 17.12669,4.19429 34.67921,2.22816 51.09677,-3.54839 8.53659,-3.00361 12.46984,-5.6192 17.74194,-12.77419 18.87812,-25.62031 -41.6494,-50.83232 -60.32258,-54.29032 -15.79223,-2.924487 -11.32177,17.63468 -4.61291,19.87097 4.15177,1.38392 8.75269,0 13.12904,0" />
    <path
       style="fill:#000000;fill-opacity:1;fill-rule:nonzero;stroke:none;stroke-width:0.264583;stroke-opacity:1"
       d="m 22,167.83871 c 0,0 2.477984,-0.24432 2.477984,-0.24432 -0.365929,-3.71132 0.103875,-8.19525 2.168683,-12.57544 1.696885,-3.59969 4.496096,-7.11678 8.3555,-9.69264 3.094337,-2.06904 6.874842,-3.52694 11.004038,-4.00159 4.452308,-0.50484 9.183702,0.14038 13.917048,1.70219 4.473408,1.47611 8.76921,3.68685 13.147252,6.31787 4.185606,2.54409 8.343504,5.41423 12.696396,8.13865 4.259661,2.66608 8.757908,5.21779 13.646738,7.07528 5.032071,1.91304 10.277781,3.01449 15.608521,3.65881 5.26449,0.63632 10.59536,0.82517 15.87621,0.91711 4.94761,0.0848 10.1402,0.0723 15.20719,-0.57089 5.04417,-0.64023 10.02519,-1.90988 14.62402,-4.376 4.1359,-2.22078 7.75885,-5.4057 10.5213,-9.20183 2.75203,-3.78182 4.65841,-8.18266 5.3508,-12.84804 0.88513,-6.09254 -0.2842,-12.40189 -3.09989,-17.80867 -2.82716,-5.42874 -7.26427,-9.91123 -12.47621,-12.92783 -5.27322,-3.05204 -11.2934,-4.60108 -17.23962,-4.70274 -6.07239,-0.10381 -12.0488,1.28278 -17.38836,3.74491 -2.99573,1.37858 -5.84644,3.15495 -8.2771,5.32347 -2.47676,2.20966 -4.5053,4.81541 -5.82157,7.81012 -1.34086,3.11402 -1.82949,6.49421 -1.33459,9.66876 0.25784,1.65403 0.78807,3.23956 1.54125,4.66823 0.78027,1.48007 1.79719,2.78807 3.00412,3.85192 1.33647,1.17994 2.87188,2.0362 4.45687,2.6271 1.66437,0.62049 3.39905,0.95484 5.07116,1.06671 3.62756,0.24267 7.17243,-0.49278 10.16704,-1.35531 5.61711,-1.60326 10.36894,-3.9705 14.18232,-6.42712 -3.81529,2.45785 -8.57966,4.79762 -14.20478,6.34706 -3.0099,0.82128 -6.54021,1.48537 -10.12415,1.17091 -1.64779,-0.14459 -3.3434,-0.511 -4.95569,-1.15453 -1.53587,-0.61303 -3.00092,-1.47994 -4.25735,-2.64561 -1.13143,-1.05149 -2.07126,-2.33173 -2.77786,-3.76755 -0.68236,-1.38658 -1.14387,-2.91262 -1.34288,-4.48929 -0.38237,-3.02899 0.18,-6.22311 1.53922,-9.12858 1.28853,-2.81251 3.25232,-5.25961 5.6542,-7.33508 2.35897,-2.03839 5.12601,-3.70512 8.03941,-4.98926 5.21192,-2.29247 10.98565,-3.51433 16.78519,-3.30978 5.67994,0.20035 11.35912,1.78531 16.26587,4.74759 4.84808,2.92688 8.90238,7.19792 11.42077,12.26189 2.50889,5.04493 3.45402,10.84777 2.54991,16.3479 -0.67544,4.19743 -2.44746,8.16752 -4.99632,11.58197 -2.56015,3.42954 -5.88941,6.27944 -9.6477,8.23914 -4.20434,2.19579 -8.81608,3.33497 -13.60853,3.89066 -4.83346,0.56044 -9.83336,0.52539 -14.75381,0.38825 -5.25455,-0.145 -10.44067,-0.38404 -15.51817,-1.04963 -5.13339,-0.67291 -10.07061,-1.77225 -14.73903,-3.60025 -4.542583,-1.77982 -8.780494,-4.23016 -12.931407,-6.88696 -4.228054,-2.70618 -8.370132,-5.62784 -12.659212,-8.2933 -4.444718,-2.79228 -8.988608,-5.2607 -13.842677,-6.96326 -5.146563,-1.80508 -10.508455,-2.67456 -15.739926,-2.17089 -4.859954,0.46156 -9.371905,2.09434 -13.125003,4.51456 -4.67485,3.01937 -8.092667,7.19294 -10.188117,11.5228 -2.548427,5.26586 -3.151035,10.6738 -2.707042,15.17685 0,0 2.477984,-0.24432 2.477984,-0.24432 z"
       id="path1148"
       inkscape:path-effect="#path-effect1150;#path-effect1152"
       inkscape:original-d="m 22,167.83871 c 4.57548,-7.81727 5.105803,-17.88 11.709676,-24.48387 2.798799,-2.7988 8.402743,-3.75299 12.064518,-4.25807 24.276039,-3.34842 34.430406,14.74696 54.290326,23.7742 8.72733,3.96697 21.39046,4.6129 30.87096,4.6129 10.61105,0 20.10814,1.61 29.09678,-4.6129 7.07934,-4.90109 11.52708,-13.47353 15.25806,-20.93549 15.91122,-31.82244 -25.25785,-41.25099 -48.6129,-30.87097 -8.67123,3.85388 -22.55574,21.84933 -11,30.51613 4.65017,3.48763 14.2929,2.48387 19.51613,2.48387 6.98505,0 12.06219,1.07264 14.19355,-6.38709" />
    <path
       id="path1184"
       style="fill:#000000;fill-opacity:1;fill-rule:nonzero;stroke:none;stroke-width:0.211276;stroke-opacity:1"
       d="m 39.74021,84.451693 c -1.326496,0.419576 -2.859217,1.219851 -4.168221,2.59364 -1.050954,1.102967 -1.949065,2.580325 -2.392619,4.332552 -0.390625,1.543141 -0.419924,3.290494 0.05374,5.010547 0.436165,1.58386 1.29943,3.13016 2.562117,4.388878 0.918749,0.89811 2.010492,1.6128 3.209107,2.14612 1.172217,0.52157 2.441227,0.86691 3.736206,1.03922 2.533111,0.33719 5.115516,0.0409 7.628475,-0.54726 2.45129,-0.60144 4.829652,-1.47359 7.17889,-2.26136 2.346458,-0.78684 4.652649,-1.48559 7.027478,-1.789036 3.772365,-0.470735 7.655799,0.09674 11.110949,1.608166 3.478024,1.52146 6.494317,3.98506 8.660454,7.00578 2.210253,3.08224 3.521433,6.71826 3.835941,10.36629 0.325934,3.78055 -0.41454,7.54468 -1.980758,10.78849 -1.655172,3.42805 -4.212077,6.25277 -7.157702,8.20622 -3.199773,2.12199 -6.826899,3.21086 -10.271725,3.38635 -3.892327,0.19827 -7.52212,-0.75078 -10.455692,-2.27634 -0.269499,-0.008 -0.539202,-0.0144 -0.808736,-0.0207 -1.395785,-0.0324 -2.222909,-0.61246 -2.493388,-1.2945 -0.09857,-0.006 -0.137284,-0.009 -0.411345,-0.0274 -1.378129,-0.1118 -2.747993,-0.28748 -4.121712,-0.44131 -0.319669,-0.0397 -0.639024,-0.0834 -0.957564,-0.13074 1.801149,1.99736 4.11074,3.89244 6.973218,5.3392 3.539363,1.78889 7.881944,2.84297 12.502079,2.51355 4.068441,-0.29009 8.287318,-1.66681 11.964644,-4.2323 3.386436,-2.36256 6.256994,-5.70839 8.062557,-9.70587 1.709057,-3.78383 2.432976,-8.1027 1.947685,-12.38581 -0.46841,-4.13409 -2.062628,-8.18101 -4.630725,-11.56157 -2.517447,-3.31387 -5.944073,-5.94595 -9.822656,-7.5153 -3.855605,-1.560051 -8.115931,-2.05303 -12.197189,-1.42782 -2.552014,0.383945 -4.981101,1.187027 -7.320483,2.029333 -2.385362,0.858857 -4.649343,1.746957 -7.005774,2.380217 -2.37397,0.66663 -4.777163,1.04102 -7.12618,0.82992 -1.197794,-0.10758 -2.378338,-0.37631 -3.47369,-0.80977 -1.119068,-0.44284 -2.143221,-1.05479 -3.013253,-1.83864 -1.221885,-1.077307 -2.112485,-2.460234 -2.607076,-3.92793 -0.537027,-1.593627 -0.603555,-3.263376 -0.297656,-4.775935 0.347357,-1.717557 1.161531,-3.205499 2.165759,-4.334103 1.251606,-1.406619 2.763776,-2.239798 4.094841,-2.660819 z" />
    <path
       style="fill:#000000;fill-opacity:1;fill-rule:nonzero;stroke:none;stroke-width:0.241232;stroke-opacity:1"
       d="m 67.889295,142.3712 c 0,0 0.219917,2.25956 0.219917,2.25956 1.240793,-0.12076 2.818178,0.0896 4.266862,0.97591 1.163068,0.7116 2.246836,1.88681 2.827292,3.41029 0.395521,1.01121 0.582791,2.20879 0.490976,3.50671 -0.08479,1.19617 -0.402582,2.44612 -0.945758,3.70643 -0.5426,1.19233 -1.261983,2.33285 -2.124797,3.45648 -0.84542,1.10098 -1.805141,2.15604 -2.838847,3.21482 -1.926305,1.97292 -4.357083,4.18873 -6.29256,6.57352 -0.986521,1.2154 -1.906896,2.55291 -2.643261,3.99807 -0.730928,1.43449 -1.284911,2.9837 -1.537002,4.62921 -0.299106,1.91884 -0.162993,3.8423 0.272065,5.67929 0.433651,1.83106 1.16685,3.58784 2.077836,5.19115 1.810048,3.18516 4.314669,5.87636 6.743583,8.37218 2.389538,2.49585 4.896763,4.98011 7.631864,7.13674 2.759773,2.17609 5.742849,4.01151 9.05972,5.19174 3.397875,1.17794 7.025478,1.59738 10.471849,0.97122 1.767423,-0.32108 3.470043,-0.9256 5.004106,-1.77758 1.57059,-0.87227 2.9605,-2.00126 4.07679,-3.35264 1.03013,-1.25126 1.80251,-2.67025 2.30996,-4.14509 0.52509,-1.5261 0.76722,-3.1121 0.72727,-4.6613 -0.0416,-1.61179 -0.38706,-3.17071 -0.95964,-4.5928 -0.6015,-1.49393 -1.45199,-2.83401 -2.47586,-3.95661 -1.08668,-1.19148 -2.35945,-2.13027 -3.69405,-2.81681 -1.439129,-0.74032 -2.949853,-1.18704 -4.420395,-1.3637 -1.623448,-0.19502 -3.188881,-0.0638 -4.602653,0.27449 -1.626592,0.38917 -3.047138,1.04997 -4.221591,1.83096 1.175253,-0.78152 2.604024,-1.43331 4.228396,-1.80176 1.412337,-0.32036 2.975848,-0.42636 4.58274,-0.2026 1.455555,0.2027 2.937488,0.67624 4.339703,1.43983 1.29756,0.70661 2.52217,1.66035 3.55028,2.85053 0.96841,1.12107 1.75621,2.44616 2.29485,3.90718 0.51257,1.39033 0.797,2.89993 0.78808,4.4374 -0.009,1.47822 -0.2886,2.97699 -0.83288,4.40318 -0.52627,1.37899 -1.298,2.68467 -2.29671,3.81591 -1.07777,1.22522 -2.40524,2.23542 -3.89375,3.0009 -1.454852,0.74816 -3.056914,1.25873 -4.704489,1.50264 -3.2181,0.47651 -6.590928,-0.0241 -9.734968,-1.23442 -3.091228,-1.15912 -5.888801,-2.93979 -8.507805,-5.07823 -2.60049,-2.12332 -4.998127,-4.5765 -7.325467,-7.09244 -2.352928,-2.58601 -4.589852,-5.17825 -6.14736,-8.14871 -0.771417,-1.4715 -1.359646,-3.04042 -1.67923,-4.62805 -0.320393,-1.59165 -0.367095,-3.18248 -0.07564,-4.70926 0.254174,-1.30855 0.753643,-2.56327 1.421965,-3.75644 0.674544,-1.20429 1.518395,-2.34091 2.446371,-3.39762 1.905322,-2.16997 4.152588,-4.04432 6.345778,-6.1283 1.120648,-1.06489 2.224882,-2.18725 3.230776,-3.40203 1.029469,-1.24326 1.955576,-2.58295 2.690773,-4.05543 0.79489,-1.53071 1.352872,-3.16568 1.586323,-4.84777 0.25343,-1.82697 0.113076,-3.65785 -0.431126,-5.33451 -0.832425,-2.51635 -2.499771,-4.49554 -4.423055,-5.75661 -2.372027,-1.5553 -4.98772,-1.9605 -7.097144,-1.75519 0,0 0.219917,2.25956 0.219917,2.25956 z"
       id="path1370"
       inkscape:path-effect="#path-effect1372;#path-effect1374"
       inkscape:original-d="m 67.889295,142.3712 c 5.525021,-0.63552 7.7092,3.32254 9.307177,5.949 11.687664,19.21004 -12.520353,16.99403 -16.591056,30.00367 -2.246583,7.17992 0.651793,13.34923 8.49786,18.36432 5.312483,3.39565 29.080223,11.47186 35.205404,8.53552 22.53628,-10.80362 4.82238,-27.50774 -16.995709,-19.14027" />
    <path
       id="path1376"
       style="fill:#000000;fill-opacity:1;fill-rule:nonzero;stroke:none;stroke-width:0.252492;stroke-opacity:1"
       d="m 158.60014,161.27801 c 0.24177,0.55742 0.0773,0.68683 -0.65888,1.18391 -0.62308,0.36515 -1.2812,0.70083 -1.8066,1.20354 -0.71839,0.71873 -1.395,1.49099 -2.25103,2.05362 -0.11714,0.068 -0.23557,0.13245 -0.3545,0.19534 3.12394,-0.52509 6.60137,-0.53064 10.1198,0.33486 3.70925,0.91243 7.39876,2.78761 10.60193,5.59863 2.98748,2.62172 5.47866,6.00318 6.99337,9.90327 1.47169,3.78928 1.98902,7.99438 1.52549,12.16463 -0.46317,4.16711 -1.89608,8.20861 -4.22041,11.66286 -2.39508,3.55936 -5.67318,6.4074 -9.32501,8.38346 -3.91078,2.11619 -8.1546,3.18905 -12.25197,3.24012 -4.29533,0.0598 -8.30713,-0.99184 -11.63598,-2.55437 -4.32701,-2.03106 -7.41402,-4.84398 -9.43302,-7.39851 2.01436,2.54867 5.07325,5.44552 9.3307,7.6078 3.29843,1.67521 7.31587,2.90405 11.73365,3.02462 4.20579,0.10881 8.63826,-0.81033 12.80955,-2.84169 3.88968,-1.8942 7.49418,-4.7359 10.22935,-8.43049 2.65764,-3.58984 4.40801,-7.87178 5.11804,-12.37547 0.70956,-4.50077 0.37001,-9.16543 -1.08934,-13.49117 -1.50335,-4.45614 -4.13431,-8.38933 -7.3887,-11.50265 -3.48637,-3.33527 -7.63142,-5.68609 -11.94242,-6.92465 -2.05427,-0.59018 -4.10502,-0.91972 -6.10402,-1.03766 z m -17.04444,4.2106 c -1.27162,0.77428 -2.40305,1.59801 -3.38481,2.42517 l 1.02371,1.21491 c 0.18726,-0.0155 0.38722,-0.0186 0.60048,-0.006 0.27358,0.0162 0.54086,-0.0349 0.81184,-0.0692 0.75398,-0.11944 1.4928,-0.30821 2.24483,-0.43667 0.60822,-0.11688 1.21808,-0.22407 1.83037,-0.23358 0.36739,-0.006 0.73588,0.0236 1.10536,0.10697 0.006,0.003 0.0118,0.006 0.0176,0.009 1.09031,-0.56816 2.28222,-1.09082 3.5724,-1.53376 -1.08869,0.0496 -2.17584,-0.0114 -3.26079,-0.15916 -1.22686,-0.16158 -2.43805,-0.38489 -3.58996,-0.85422 -0.21422,-0.0951 -0.62165,-0.25805 -0.971,-0.46353 z" />
  </g>
</svg>
